<svg width="31" height="31" viewBox="0 0 31 31" fill="none" xmlns="http://www.w3.org/2000/svg">
<path d="M15.5 27.125C13.3924 27.125 11.3321 26.5 9.57971 25.3291C7.8273 24.1582 6.46146 22.4939 5.65491 20.5467C4.84837 18.5996 4.63734 16.4569 5.04851 14.3898C5.45969 12.3227 6.47459 10.424 7.9649 8.93365C9.4552 7.44334 11.354 6.42844 13.4211 6.01726C15.4882 5.60609 17.6308 5.81712 19.578 6.62366C21.5252 7.43021 23.1894 8.79605 24.3604 10.5485C25.5313 12.3009 26.1563 14.3611 26.1563 16.4688C26.1563 19.295 25.0335 22.0054 23.0351 24.0039C21.0367 26.0023 18.3262 27.125 15.5 27.125ZM15.5 7.75C13.7756 7.75 12.0899 8.26135 10.6561 9.21938C9.22233 10.1774 8.10483 11.5391 7.44493 13.1322C6.78503 14.7254 6.61237 16.4784 6.94878 18.1697C7.2852 19.861 8.11558 21.4145 9.33492 22.6338C10.5543 23.8532 12.1078 24.6836 13.7991 25.02C15.4903 25.3564 17.2434 25.1837 18.8365 24.5238C20.4297 23.8639 21.7914 22.7464 22.7494 21.3126C23.7074 19.8788 24.2188 18.1932 24.2188 16.4688C24.2188 14.1564 23.3002 11.9387 21.6651 10.3037C20.03 8.66858 17.8124 7.75 15.5 7.75Z" fill="black"/>
<path d="M3.87567 7.35486L7.34503 3.87822L8.71649 5.24681L5.24712 8.72344L3.87567 7.35486Z" fill="black"/>
<path d="M22.2806 5.23886L23.6521 3.87028L27.1215 7.34691L25.75 8.71549L22.2806 5.23886Z" fill="black"/>
<path d="M20.3438 15.5H16.4688V11.625H14.5312V15.5H10.6562V17.4375H14.5312V21.3125H16.4688V17.4375H20.3438V15.5Z" fill="black"/>
</svg>
