<svg width="14" height="14" viewBox="0 0 14 14" fill="none" xmlns="http://www.w3.org/2000/svg">
<path d="M2.79999 2.79999V11.2C2.79999 11.5713 2.94749 11.9274 3.21004 12.1899C3.47259 12.4525 3.82868 12.6 4.19999 12.6H10.85C10.9428 12.6 11.0318 12.5631 11.0975 12.4975C11.1631 12.4318 11.2 12.3428 11.2 12.25C11.2 12.1572 11.1631 12.0681 11.0975 12.0025C11.0318 11.9369 10.9428 11.9 10.85 11.9H4.19999C4.01434 11.9 3.83629 11.8262 3.70501 11.695C3.57374 11.5637 3.49999 11.3856 3.49999 11.2H10.5C10.6856 11.2 10.8637 11.1262 10.995 10.995C11.1262 10.8637 11.2 10.6856 11.2 10.5V2.79999C11.2 2.42869 11.0525 2.0726 10.7899 1.81004C10.5274 1.54749 10.1713 1.39999 9.79999 1.39999H4.19999C3.82868 1.39999 3.47259 1.54749 3.21004 1.81004C2.94749 2.0726 2.79999 2.42869 2.79999 2.79999ZM9.79999 2.09999C9.98564 2.09999 10.1637 2.17374 10.295 2.30502C10.4262 2.43629 10.5 2.61434 10.5 2.79999V10.5H3.49999V2.79999C3.49999 2.61434 3.57374 2.43629 3.70501 2.30502C3.83629 2.17374 4.01434 2.09999 4.19999 2.09999H9.79999ZM6.99999 3.49999C7.09281 3.49999 7.18184 3.53687 7.24748 3.60251C7.31311 3.66814 7.34999 3.75717 7.34999 3.84999V6.64999C7.34999 6.74282 7.31311 6.83184 7.24748 6.89748C7.18184 6.96312 7.09281 6.99999 6.99999 6.99999C6.90716 6.99999 6.81814 6.96312 6.7525 6.89748C6.68686 6.83184 6.64999 6.74282 6.64999 6.64999V3.84999C6.64999 3.75717 6.68686 3.66814 6.7525 3.60251C6.81814 3.53687 6.90716 3.49999 6.99999 3.49999ZM6.99999 9.09999C7.13923 9.09999 7.27276 9.04468 7.37122 8.94622C7.46968 8.84777 7.52499 8.71423 7.52499 8.57499C7.52499 8.43576 7.46968 8.30222 7.37122 8.20376C7.27276 8.10531 7.13923 8.04999 6.99999 8.04999C6.86075 8.04999 6.72721 8.10531 6.62876 8.20376C6.5303 8.30222 6.47499 8.43576 6.47499 8.57499C6.47499 8.71423 6.5303 8.84777 6.62876 8.94622C6.72721 9.04468 6.86075 9.09999 6.99999 9.09999Z" fill="black"/>
</svg>
