<svg width="18" height="18" viewBox="0 0 18 18" fill="none" xmlns="http://www.w3.org/2000/svg">
<g clip-path="url(#clip0_2_178)">
<path d="M8.9375 3C9.5601 2.99996 10.1591 3.23817 10.6117 3.66575C11.0642 4.09334 11.336 4.6779 11.3713 5.2995L11.375 5.4375H15.3125C15.455 5.43754 15.5922 5.49168 15.6963 5.58898C15.8005 5.68628 15.8638 5.81947 15.8735 5.96166C15.8832 6.10385 15.8386 6.24442 15.7487 6.35497C15.6587 6.46553 15.5302 6.53782 15.389 6.55725L15.3125 6.5625H14.7155L13.7555 16.3275C13.7074 16.8143 13.4878 17.2682 13.136 17.6081C12.7841 17.948 12.3229 18.1517 11.8348 18.183L11.7028 18.1875H6.17225C5.68285 18.1875 5.20939 18.0134 4.8365 17.6965C4.46361 17.3795 4.21559 16.9403 4.13675 16.4573L4.1195 16.3267L3.15875 6.5625H2.5625C2.42657 6.56249 2.29524 6.51327 2.1928 6.42392C2.09036 6.33458 2.02374 6.21117 2.00525 6.0765L2 6C2.00001 5.86407 2.04923 5.73274 2.13858 5.6303C2.22792 5.52786 2.35133 5.46124 2.486 5.44275L2.5625 5.4375H6.5C6.5 4.79103 6.75681 4.17105 7.21393 3.71393C7.67105 3.25681 8.29103 3 8.9375 3ZM13.5853 6.5625H4.289L5.23925 16.2165C5.26029 16.4319 5.35522 16.6334 5.50792 16.7868C5.66062 16.9402 5.86169 17.036 6.077 17.058L6.17225 17.0625H11.7028C12.1528 17.0625 12.5345 16.7437 12.6215 16.311L12.6365 16.2165L13.5845 6.5625H13.5853ZM10.25 8.625C10.3859 8.62501 10.5173 8.67423 10.6197 8.76358C10.7221 8.85292 10.7888 8.97633 10.8073 9.111L10.8125 9.1875V14.4375C10.8125 14.58 10.7583 14.7172 10.661 14.8213C10.5637 14.9255 10.4305 14.9888 10.2883 14.9985C10.1462 15.0082 10.0056 14.9636 9.89503 14.8737C9.78447 14.7837 9.71218 14.6552 9.69275 14.514L9.6875 14.4375V9.1875C9.6875 9.03832 9.74676 8.89524 9.85225 8.78975C9.95774 8.68426 10.1008 8.625 10.25 8.625ZM7.625 8.625C7.76093 8.62501 7.89226 8.67423 7.9947 8.76358C8.09714 8.85292 8.16376 8.97633 8.18225 9.111L8.1875 9.1875V14.4375C8.18746 14.58 8.13332 14.7172 8.03602 14.8213C7.93872 14.9255 7.80553 14.9888 7.66334 14.9985C7.52115 15.0082 7.38058 14.9636 7.27003 14.8737C7.15947 14.7837 7.08718 14.6552 7.06775 14.514L7.0625 14.4375V9.1875C7.0625 9.03832 7.12176 8.89524 7.22725 8.78975C7.33274 8.68426 7.47582 8.625 7.625 8.625ZM8.9375 4.125C8.60811 4.12501 8.29076 4.24888 8.04846 4.47201C7.80615 4.69514 7.6566 5.00122 7.6295 5.3295L7.625 5.4375H10.25C10.25 5.0894 10.1117 4.75556 9.86558 4.50942C9.61944 4.26328 9.2856 4.125 8.9375 4.125Z" fill="#FF4343"/>
</g>
<defs>
<clipPath id="clip0_2_178">
<rect width="18" height="18" fill="white"/>
</clipPath>
</defs>
</svg>
