<svg width="32" height="32" viewBox="0 0 32 32" fill="none" xmlns="http://www.w3.org/2000/svg">
<path d="M25.14 23.764L26.672 25.049C27.7228 23.8076 28.5489 22.3924 29.113 20.867L27.235 20.184C26.7506 21.4901 26.0419 22.7016 25.141 23.764H25.14Z" fill="#FF2929"/>
<path d="M18 27.81L18.413 29.778C20.0107 29.5013 21.5476 28.9469 22.954 28.14L22 26.409C20.756 27.0999 19.4033 27.5737 18 27.81Z" fill="#FF2929"/>
<path d="M10 26.409L9 28.14C10.4227 28.9472 11.9748 29.5014 13.587 29.778L13.934 27.811C12.5516 27.5742 11.2206 27.0999 10 26.409Z" fill="#FF2929"/>
<path d="M4.76499 20.184L2.88699 20.867C3.45083 22.3923 4.27655 23.8076 5.32699 25.049L6.85899 23.764C5.95805 22.7016 5.24942 21.4901 4.76499 20.184Z" fill="#FF2929"/>
<path d="M16 22C15.7033 22 15.4133 22.088 15.1666 22.2528C14.92 22.4176 14.7277 22.6519 14.6142 22.926C14.5006 23.2001 14.4709 23.5017 14.5288 23.7926C14.5867 24.0836 14.7296 24.3509 14.9393 24.5607C15.1491 24.7704 15.4164 24.9133 15.7074 24.9712C15.9983 25.0291 16.2999 24.9993 16.574 24.8858C16.8481 24.7723 17.0824 24.58 17.2472 24.3334C17.412 24.0867 17.5 23.7967 17.5 23.5C17.5 23.1022 17.342 22.7206 17.0607 22.4393C16.7794 22.158 16.3978 22 16 22Z" fill="#FF2929"/>
<path d="M15 8H17V19H15V8Z" fill="#FF2929"/>
<path d="M30 16H28C28 12.8174 26.7357 9.76515 24.4853 7.51472C22.2348 5.26428 19.1826 4 16 4C12.8174 4 9.76515 5.26428 7.51472 7.51472C5.26428 9.76515 4 12.8174 4 16H2C2 12.287 3.475 8.72601 6.1005 6.1005C8.72601 3.475 12.287 2 16 2C19.713 2 23.274 3.475 25.8995 6.1005C28.525 8.72601 30 12.287 30 16Z" fill="#FF2929"/>
</svg>
